<svg width="1400" height="980" viewBox="0 0 1400 980" fill="none" xmlns="http://www.w3.org/2000/svg">
<rect width="1400" height="980" fill="white"/>
<g clip-path="url(#clip0)">
<path d="M1400 0H0V980H1400V0Z" fill="url(#paint0_radial)"/>
<path d="M1400 0H1087.28C1034.14 58.853 979.389 145.876 1031.65 245.228C1098.36 372.055 1116.36 444.055 1033.84 623.974C994.497 709.768 1232.59 907.328 1400 868.055V0Z" fill="black"/>
<path d="M847.444 659.637C566.958 742.713 452.963 832.128 371.967 980H1400V0H1292.41C1287.43 269.909 1115.68 580.189 847.444 659.637Z" fill="url(#paint1_radial)"/>
<path opacity="0.1" d="M571.125 576.914C522.375 682.762 401.123 624.701 333.139 668.211C172.849 770.797 117.731 923.314 103.381 980H1295.92C1262.23 900.523 1162.1 705.95 967.087 597.431C814.226 512.366 628.938 451.393 571.125 576.914Z" fill="url(#paint2_radial)"/>
<path d="M1400 267.947C1342.67 287.576 1292 331.732 1268.75 417.093C1207.5 641.976 1015.15 716.458 941.982 725.71C868.822 734.962 843.115 808.285 835.009 848.552C823.027 908.072 819.812 950.483 820.284 980H1400V267.947Z" fill="black"/>
<path d="M0 558.76C73.987 477.724 235.4 356.785 529.458 338.654C811.176 321.281 894.717 150.113 881.186 0H0V558.76Z" fill="#19053B"/>
<path opacity="0.4" d="M0 471.689V466.688C35.907 417.809 73.806 378.243 113.189 348.616C188.077 292.281 266.347 273.975 345.828 294.208C521.918 338.433 631.329 304.156 690.147 186.339C695.567 175.484 701.078 164.136 706.913 152.121C729.123 106.388 754.881 53.355 789.264 0H793.016C757.879 54.047 731.856 107.627 709.612 153.432C703.774 165.454 698.26 176.809 692.834 187.679C649.869 273.739 580.373 315.811 478.279 315.816C438.858 315.818 394.592 309.548 345.094 297.117C198.11 259.7 81.139 359.728 0 471.689ZM350.413 333.577C445.98 354.516 521.649 356.565 581.743 339.839C647.63 321.501 698.038 280.19 735.848 213.547C740.971 204.519 746.053 195.443 751.436 185.833C784.754 126.338 821.297 61.095 870.959 0H867.465C817.819 61.182 781.59 125.85 748.819 184.367C743.438 193.972 738.358 203.045 733.239 212.066C661.675 338.202 547.377 373.663 351.06 330.647C306.826 320.788 263.598 320.592 222.575 330.067C185.989 338.516 150.13 354.906 115.996 378.78C76.327 406.525 38.058 444.88 0 495.145V499.857C75.671 398.247 187.599 297.29 350.413 333.577ZM353.071 351.808C453.953 372.427 530.093 374.158 592.689 357.257C662.13 338.506 715.994 295.727 757.357 226.474C761.425 219.664 765.519 212.767 769.656 205.799C808.98 139.555 852.549 66.17 913.873 0H909.594C849.332 65.724 805.944 138.792 767.076 204.267C762.941 211.233 758.847 218.128 754.781 224.936C676.929 355.28 560.718 391.186 353.677 348.869C308.293 339.419 264.484 339.089 223.469 347.889C186.759 355.765 151.073 371.232 117.403 393.862C70.164 425.609 30.813 468.918 0 508.974V513.925C78.347 410.978 187.755 317.384 353.071 351.808ZM355.727 370.036C460.712 390.03 539.484 391.501 603.623 374.665C676.645 355.497 733.97 311.251 778.869 239.399L785.566 228.67C833.637 151.636 884.814 69.626 958.48 0H954.294C881.384 69.484 831.403 149.547 783.021 227.083L776.324 237.81C693.319 370.645 571.624 408.101 356.294 367.091C267.106 349.767 189.424 363.456 118.809 408.943C71.364 439.504 31.994 481.854 0 522.752V527.642C82.833 420.545 186.914 337.245 355.727 370.036ZM358.384 388.265C412.787 397.906 463.712 403.955 511.154 403.954C629.656 403.95 726.317 366.188 800.381 252.321C856.537 165.983 916.725 73.457 1007.67 0H1002.36C997.91 3.657 993.48 7.373 989.091 11.192C907.43 82.237 849.221 171.729 797.865 250.685C695.049 408.756 548.027 418.824 358.913 385.312C267.486 368.772 189.408 381.433 120.217 424.024C72.525 453.38 33.234 494.673 0 536.379V541.133C77.336 442.89 179.236 355.854 358.384 388.265ZM342.432 278.886C426.842 301.559 494.349 304.386 548.814 287.528C576.156 279.064 600.288 265.334 620.539 246.717C640.853 228.042 657.94 203.825 671.327 174.738C676.238 164.068 681.291 152.723 686.64 140.712C705.439 98.505 727.123 49.832 755.84 0H752.494C724.004 49.464 702.586 97.538 683.9 139.491C678.554 151.493 673.504 162.83 668.601 173.484C616.26 287.213 509.824 320.744 343.214 275.989C265.79 254.955 187.924 274.314 111.788 333.534C67.414 368.049 29.892 411.203 0 452.368V457.665C70.321 359.97 192.008 238.017 342.432 278.886ZM0 398.991C32.622 351.878 70.237 308.637 108.167 275.458C163.228 227.293 246.716 176.138 331.775 205.951C371.847 219.997 408.546 227.33 440.854 227.748C471.522 228.137 498.32 222.329 520.5 210.462C552.607 193.284 575.02 163.002 585.311 122.889L587.163 115.653C594.845 85.584 605.116 45.385 620.953 0H617.844C602.069 45.195 591.876 85.085 584.257 114.91L582.406 122.143C572.185 161.981 550.881 190.806 519.086 207.816C474.308 231.773 409.881 230.149 332.769 203.12C296.341 190.35 257.166 191.093 216.33 205.328C180.428 217.842 143.372 240.678 106.193 273.201C69.037 305.702 32.19 347.812 0 393.756V398.991ZM1400 181.809C1385.56 184.423 1371.48 187.637 1357.69 191.455C1303.76 206.39 1253.56 230.696 1204.22 265.763C1155.13 300.648 1106.75 346.295 1056.3 405.313C862.478 632.048 652.402 619.564 409.154 605.106C402.922 604.736 396.664 604.364 390.38 603.995C269.362 596.875 191.94 593.391 137.278 605.001C85.78 615.938 51.281 640.183 0 686.565V690.618C51.987 643.418 86.405 618.872 137.902 607.934C192.195 596.404 269.44 599.884 390.204 606.988C396.487 607.358 402.745 607.73 408.976 608.1C531.034 615.353 646.323 622.205 753.425 598.659C872.339 572.514 969.304 511.696 1058.58 407.262C1168.38 278.81 1271.62 207.803 1400 184.838V181.809ZM110.901 305.679C188.649 241.358 264.752 220.073 337.107 242.42C487.892 288.701 588.593 256.34 628.319 148.834C631.349 140.633 634.528 131.767 637.894 122.38C650.255 87.898 665.433 45.572 686.345 0H682.951C662.577 44.672 647.613 86.379 635.069 121.366C631.706 130.746 628.529 139.606 625.504 147.793C606.37 199.574 572.819 233.882 525.784 249.762C476.957 266.249 413.773 262.812 337.989 239.552C299.364 227.622 259.031 228.098 218.113 240.966C182.043 252.309 145.328 273.304 108.988 303.368C71.19 334.639 33.534 376.321 0 423.359V428.532C33.988 380.301 72.377 337.551 110.901 305.679ZM109.535 290.569C187.347 224.328 265.119 201.374 334.443 224.186C417.59 251.458 484.633 252.531 533.704 227.372C568.683 209.439 593.281 178.652 606.816 135.867C608.655 130.053 610.582 123.842 612.619 117.271C622.503 85.407 635.107 44.782 653.203 0H649.904C632.15 44.187 619.679 84.387 609.754 116.382C607.719 122.946 605.793 129.153 603.955 134.962C590.672 176.955 566.575 207.148 532.336 224.702C484.003 249.483 417.737 248.35 335.379 221.336C297.855 208.987 258.101 209.597 217.222 223.147C181.238 235.074 144.352 256.989 107.591 288.284C75.521 315.585 44.245 349.333 14.633 388.591C9.667 395.172 4.786 401.872 0 408.657V413.954C33.372 366.21 71.578 322.881 109.535 290.569ZM112.266 320.79C188.824 259.328 265.367 239.097 339.77 260.653C419.54 283.562 486.165 286.73 537.794 270.07C589.054 253.529 626.746 217.098 649.821 161.789C653.903 152.003 658.153 141.465 662.652 130.307C677.941 92.395 696.109 47.342 720.521 0H717.136C693.039 46.932 675.04 91.562 659.87 129.186C655.374 140.335 651.128 150.866 647.053 160.635C601.282 270.343 498.177 303.023 340.601 257.771C300.867 246.258 259.957 246.601 219.004 258.787C182.842 269.548 146.298 289.621 110.387 318.452C65.735 354.3 28.532 398.228 0 437.953V443.111C28.707 402.687 66.574 357.473 112.266 320.79ZM347.753 315.347C439.498 336.878 512.452 339.189 570.784 322.413C633.141 304.479 680.099 264.639 714.339 200.615C719.872 190.269 725.425 179.668 731.306 168.445C758.557 116.43 789.447 57.469 831.141 0H827.412C786.283 57.045 755.68 115.455 728.648 167.053C722.771 178.27 717.22 188.865 711.693 199.2C646.473 321.156 534.443 356.077 348.443 312.428C266.892 292.993 188.212 310.242 114.592 363.699C75.358 392.188 36.977 431.523 0 481.062V486.102C105.787 342.933 222.546 285.507 347.753 315.347ZM374.305 497.631C498.555 511.315 593.029 515.866 679.982 496.309C779.93 473.828 859.205 420.921 929.469 329.811C1056.88 164.59 1181.35 60.158 1400 40.375V37.26C1313.67 44.936 1239.88 65.969 1173.43 101.366C1128.33 125.386 1085.95 156.348 1043.88 196.024C1006.31 231.453 969.197 273.382 927.094 327.978C777.279 522.24 596.023 519.03 374.636 494.649C265.223 482.35 189.376 488.475 128.706 514.505C77.245 536.585 38.671 572.472 0 614.538V618.956C86.597 524.046 156.896 473.197 374.305 497.631ZM379.607 534.084C498.198 544.943 604.293 552.208 701.766 531.015C809.229 507.647 895.258 451.917 972.504 355.63C1105.24 190.17 1229.52 109.843 1400 91.766V88.963C1339.09 95.388 1284.77 109.442 1234.85 131.401C1142.61 171.977 1060.98 240.553 970.164 353.753C809.266 554.313 631.981 554.185 379.883 531.097C262.524 520.163 188.258 524.225 131.553 544.667C78.924 563.64 41.002 597.128 0 639.205V643.534C95.543 545.493 156.592 513.311 379.607 534.084ZM376.956 515.856C487.034 526.937 593.872 535.105 690.874 513.664C794.576 490.74 877.226 436.422 950.986 342.722C1073.68 186.858 1194.38 86.986 1400 66.812V63.598C1326.57 70.668 1262.46 88.089 1204.14 116.385C1115.96 159.172 1037.16 228.405 948.629 340.866C793.23 538.278 613.789 536.682 377.26 512.872C264.787 501.338 188.569 506.491 130.129 529.586C78.271 550.081 39.362 585.399 0 626.963V631.317C86.921 538.881 152.676 492.853 376.956 515.856ZM384.907 570.537C504.708 579.466 617.868 587.9 723.408 565.595C838.324 541.308 931.15 482.794 1015.54 381.447C1135.73 236.157 1250.56 160.433 1400 140.096V136.641C1363.33 141.516 1328.98 149.681 1296.14 161.32C1245.06 179.425 1197.47 205.947 1150.63 242.403C1105.36 277.638 1060.42 322.495 1013.23 379.532C829.123 600.636 623.37 585.301 385.131 567.545C254.819 557.73 186.869 559.704 134.411 574.831C84.314 589.278 49.844 615.256 0 663.216V667.383C99.298 571.502 148.063 552.691 384.907 570.537ZM387.556 588.763L394.438 589.221C516.282 597.336 631.37 605.002 737.304 582.367C854.714 557.281 949.962 497.54 1037.06 394.354C1153 256.551 1261.24 183.293 1400 162.146V159.416C1374.6 163.349 1350.36 169.005 1326.92 176.387C1274.41 192.922 1225.51 218.336 1177.43 254.082C1130.23 289.166 1083.57 334.418 1034.77 392.422C845.813 616.277 646.71 603.014 394.638 586.228L387.756 585.769C267.244 577.705 191.404 575.975 135.844 589.915C85.101 602.646 50.592 627.774 0 674.97V679.069C99.525 585.723 137.593 572.034 387.556 588.763ZM363.693 424.722C484.947 443.234 566.497 443.868 636.378 426.837C677.8 416.743 714.181 400.442 747.599 377.004C783.087 352.112 814.425 319.78 843.406 278.157C921.406 166.126 1000.46 65.413 1121.02 0H1114.31C1092.29 12.218 1071.12 25.917 1050.55 41.268C962.456 107.003 898.698 193.491 840.943 276.443C726.139 441.334 579.186 454.587 364.151 421.757C313.283 413.818 268.435 412.974 227.04 419.178C189.21 424.846 155.191 436.297 123.039 454.185C76.521 480.063 38.619 516.761 0 563.179V567.812C81.962 468.274 174.382 395.178 363.693 424.722ZM366.348 442.948C455.227 455.507 558.109 465.476 647.285 444.214C690.44 433.924 728.436 417.251 763.44 393.243C800.821 367.604 834.016 334.184 864.92 291.072C953.082 168.09 1042.8 59.32 1192.89 0H1185.14C1148.38 15.103 1114.09 33.692 1081.27 56.298C996.434 114.741 932.452 191.721 862.483 289.324C742.334 456.928 589.74 471.481 366.772 439.979C266.901 425.556 189.902 434.861 124.453 469.265C74.326 495.613 34.994 534.99 0 576.201V580.911C83.065 482.684 171.849 414.854 366.348 442.948ZM361.039 406.493C476.143 425.443 557.694 426.356 625.467 409.453C665.161 399.553 699.928 383.624 731.753 360.757C765.355 336.612 794.841 305.368 821.894 265.24C893.258 159.382 962.441 66.636 1059.85 0H1054.94C1043.01 8.231 1031.32 16.96 1019.82 26.232C938.016 92.211 878.34 176.144 819.404 263.563C710.586 424.976 563.53 436.79 361.531 403.534C267.811 387.768 189.339 399.405 121.626 439.103C73.654 467.229 34.558 507.338 0 549.842V554.606C78.692 457.048 177.394 375.604 361.039 406.493ZM371.653 479.403C488.016 493.372 583.127 498.641 669.086 478.948C715.716 468.266 756.937 450.848 795.107 425.7C836.285 398.569 873.197 362.981 907.951 316.899C1040.09 141.699 1168.15 32.505 1400 12.974V9.929C1363.83 12.95 1329.85 18.161 1297.52 25.659C1240.96 38.771 1190.32 58.622 1142.71 86.347C1061.94 133.378 991.012 201.788 905.557 315.093C761.16 506.546 585.996 502.112 372.015 476.425C165.448 451.095 86.508 505.451 0 601.979V606.483C86.764 509.127 164.767 454.034 371.653 479.403ZM369 461.177C465.964 473.823 568.111 482.625 658.188 461.583C703.078 451.098 742.688 434.053 779.275 409.475C818.552 383.091 853.605 348.585 886.435 303.988C985.598 169.282 1093.56 45.447 1296.9 0H1281.73C1275.89 1.427 1270.08 2.905 1264.33 4.479C1208.71 19.721 1158.87 41.586 1111.99 71.325C1016.35 131.987 945.904 218.142 884.019 302.209C745.441 490.459 568.964 484.23 369.392 458.203C266.961 444.549 189.58 452.856 125.867 484.346C75.244 509.364 36.397 547.318 0 589.149V593.765C86.039 494.437 168.061 434.392 369 461.177ZM991.697 366.642C813.384 585.032 613.708 568.482 382.507 549.321C259.816 539.008 187.522 542.028 132.981 559.75C83.792 575.731 48.154 603.593 0 651.318V655.516C92.499 562.995 144.04 532.285 382.257 552.31C509.676 562.872 614.911 569.285 712.654 548.362C823.888 524.55 913.295 467.411 994.021 368.54C1120.6 213.512 1240.29 135.475 1400 116.34V113.236C1351.62 118.913 1307.39 129.833 1265.56 146.416C1169.38 184.556 1084.91 252.477 991.697 366.642Z" fill="url(#paint3_radial)"/>
<path d="M378.323 690.618C186.25 623.351 81.359 642.055 0 724.055V980H1400V664.137C1121.93 929.828 754.199 822.256 378.323 690.618Z" fill="#43B1EF"/>
<path d="M0 0V357.851C38.838 300.484 136.577 180.383 269.449 148.427C363.932 125.703 429.359 83.055 471.359 0H0Z" fill="black"/>
<path opacity="0.4" d="M907.902 189.995C1064.93 194.66 1210.36 272.055 1234.36 384.055C1247.93 447.368 1310.86 456.555 1400 444.274V0H689.713C727.248 113.025 781.678 186.245 907.902 189.995Z" fill="url(#paint4_radial)"/>
<path opacity="0.4" d="M679.359 774.555C354.847 445.573 113.34 496.789 0 535.048V978.5H1033.84C971.359 869.555 813.512 910.555 679.359 774.555Z" fill="#43B1EF"/>
<path opacity="0.4" d="M269.13 780.197C149.368 729.529 78.191 724.584 0 800.589V978.5H515.197C496.216 927.572 413.724 841.372 269.13 780.197Z" fill="#43B1EF"/>
<path opacity="0.2" d="M993.431 852.18C962.767 866.43 933.029 885.51 905.044 908.892C870.343 937.883 846.917 966.456 836.644 980H840.417C851.228 965.957 873.976 938.745 907.04 911.133C950.673 874.693 1021.7 830.108 1112.25 824.646C1155.48 822.039 1196.25 814.837 1233.41 803.243C1269.31 792.038 1303.01 776.368 1333.56 756.668C1357.32 741.35 1379.4 723.605 1400 703.237V698.746C1324.8 774.114 1229.69 814.559 1112.07 821.652C1071.7 824.086 1031.78 834.357 993.431 852.18ZM1102.31 812.53C1062.95 815.416 1023.73 826.401 985.742 845.181C955.375 860.194 925.722 880.193 897.607 904.622C861.703 935.82 837.429 966.467 827.431 979.999H831.169C841.796 965.811 865.388 936.581 899.64 906.83C943.486 868.746 1014.27 821.991 1102.52 815.521C1223.48 806.655 1323.09 757.828 1400 669.996V665.393C1323.29 754.264 1223.6 803.64 1102.31 812.53ZM1001.12 859.178C970.161 872.664 940.337 890.826 912.481 913.159C879.003 940 856.397 966.557 845.896 980H849.712C860.665 966.197 882.593 940.954 914.439 915.436C957.863 880.638 1029.12 838.222 1121.98 833.77C1208.83 829.606 1281.15 810.216 1343.05 774.494C1363.06 762.944 1382 749.634 1400 734.453V730.113C1326.3 792.832 1235.57 825.32 1121.83 830.774C1080.45 832.758 1039.84 842.314 1001.12 859.178ZM1024.2 880.178C992.344 891.371 962.27 906.775 934.803 925.96C905.114 946.699 884.887 967.484 873.998 980H877.982C889.08 967.499 908.543 947.963 936.521 928.42C979.334 898.514 1051.33 862.565 1151.16 861.138C1239.29 859.879 1311.35 849.031 1371.43 827.972C1381.47 824.452 1390.97 820.732 1400 816.855V813.374C1341.51 838.707 1265.79 856.501 1151.11 858.139C1106.7 858.772 1064 866.188 1024.2 880.178ZM1008.81 866.177C977.556 878.9 947.648 896.142 919.921 917.427C887.687 942.172 865.876 966.766 855.196 980H859.061C870.114 966.534 891.239 943.213 921.836 919.738C965.051 886.582 1036.54 846.337 1131.7 842.892C1219.26 839.724 1291.49 823.181 1352.52 792.319C1369.06 783.954 1384.82 774.54 1400 763.913V760.475C1339.9 802.871 1256.92 835.36 1131.59 839.895C1089.2 841.429 1047.89 850.271 1008.81 866.177ZM1016.5 873.177C984.95 885.135 954.958 901.458 927.362 921.694C896.387 944.406 875.366 967.078 864.559 980.001H868.479C879.567 966.982 899.846 945.591 929.135 924.114C972.156 892.568 1043.91 854.452 1141.43 852.016C1229.47 849.817 1301.61 836.121 1361.98 810.147C1375.55 804.309 1388.2 797.97 1400 791.326V787.944C1337.2 823.752 1258.09 846.101 1141.35 849.016C1097.95 850.101 1055.95 858.229 1016.5 873.177ZM1092.54 803.41C1054.2 806.746 1015.67 818.446 978.052 838.185C947.982 853.96 918.415 874.877 890.171 900.355C853.036 933.852 827.903 966.625 818.261 980H821.968C832.349 965.788 856.79 934.497 892.239 902.529C936.296 862.801 1006.85 813.876 1092.8 806.398C1175.78 799.179 1250.4 770.454 1314.57 721.02C1345.81 696.957 1374.34 668.162 1400 634.877V630.083C1321.85 733.224 1217.35 792.553 1092.54 803.41ZM1082.78 794.29C1045.44 798.077 1007.62 810.492 970.362 831.189C940.592 847.727 911.11 869.561 882.737 896.085C844.358 931.963 818.331 966.936 809.12 979.999H812.798C822.872 965.886 848.193 932.477 884.841 898.227C929.107 856.856 999.433 805.759 1083.08 797.274C1165.08 788.956 1239.77 757.304 1305.07 703.199C1340.37 673.951 1372.09 638.812 1400 598.103V592.834C1320.53 710.923 1210.97 781.286 1082.78 794.29ZM1043.7 757.813C1010.42 763.407 975.403 778.681 939.612 803.21C911.036 822.796 881.899 848.297 853.01 879.006C808.94 925.854 778.793 970.83 772.795 980H776.387C784.299 968.05 813.471 925.414 855.194 881.062C900.319 833.095 969.737 773.289 1044.2 760.772C1119.98 748.033 1199.11 702.278 1267.01 631.937C1319.27 577.793 1364.3 509.986 1400 432.275V425.452C1303.43 640.693 1153.59 739.341 1043.7 757.813ZM1255.28 612.09C1186.74 686.277 1108.13 734.791 1033.93 748.695C1001.67 754.742 967.35 770.73 931.926 796.216C903.649 816.563 874.598 842.98 845.58 874.735C799.502 925.16 768.025 973.365 763.76 980H767.336C774.316 969.29 804.633 923.987 847.828 876.723C893.156 827.126 962.332 765.166 1034.48 751.645C1109.31 737.622 1188.5 688.784 1257.48 614.125C1314.49 552.416 1362.84 474.919 1400 386.335V378.473C1362.62 469.525 1313.49 549.087 1255.28 612.09ZM1053.47 766.932C1019.18 772.074 983.458 786.633 947.3 810.204C918.425 829.028 889.2 853.613 860.441 883.276C817.99 927.062 788.994 969.261 781.847 980H785.458C794.106 967.154 822.261 926.959 862.636 885.323C907.538 839.018 977.173 781.405 1053.92 769.898C1131.79 758.222 1208.76 716.675 1276.53 649.75C1324.21 602.659 1365.94 543.864 1400 476.337V470.161C1305.12 662.746 1164.53 750.28 1053.47 766.932ZM1063.24 776.05C1027.93 780.74 991.512 794.585 954.985 817.198C925.811 835.261 896.503 858.929 867.872 887.547C826.868 928.531 798.921 968.185 790.917 980H794.546C803.773 966.543 830.937 928.697 870.036 889.624C914.727 844.965 984.591 789.524 1063.64 779.024C1142.5 768.547 1219.41 730.005 1286.05 667.563C1320.74 635.052 1352.4 596.294 1380.14 552.366C1387 541.502 1393.62 530.302 1400 518.805V512.585C1318.45 662.233 1197.91 758.161 1063.24 776.05ZM1073.01 785.169C1036.69 789.408 999.568 802.538 962.675 824.193C933.202 841.494 903.806 864.246 875.304 891.817C835.64 930.185 808.679 967.444 800.007 980H803.659C813.354 966.129 839.579 930.54 877.438 893.926C921.917 850.911 992.012 797.643 1073.36 788.15C1153.21 778.831 1230.05 743.295 1295.56 685.381C1329.2 655.64 1360.01 619.975 1387.14 579.376C1391.52 572.816 1395.8 566.105 1400 559.278V553.665C1319.38 687.288 1204.48 769.828 1073.01 785.169Z" fill="#43B1EF"/>
<path d="M794.07 0C788.859 99.055 883.494 134.752 943.859 118.055C1014.36 98.555 1080.94 73.562 1162.62 104.532C1252.36 138.555 1344.77 89.742 1365.01 0H794.07V0Z" fill="#43B1EF"/>
<path opacity="0.4" d="M0 0V455.214C98.785 393.515 232.694 304.864 266.971 180.776C289.625 98.771 296.359 34.055 371.966 0H0Z" fill="url(#paint5_radial)"/>
<path d="M0 0V279.38C83.692 229.721 51.692 123.579 174.383 96.059C235.75 82.294 267.195 39.475 279.446 0H0Z" fill="#43B1EF"/>
<path opacity="0.4" d="M1227.36 182.387C1274.84 217.484 1350.69 236.387 1400 209.579V0H1142.06C1141.21 61.075 1155.6 129.35 1227.36 182.387Z" fill="#43B1EF"/>
</g>
<defs>
<radialGradient id="paint0_radial" cx="0" cy="0" r="1" gradientUnits="userSpaceOnUse" gradientTransform="translate(426.989 149.702) rotate(-8.64466) scale(979.916 641.903)">
<stop offset="0.3462" stop-color="#26184D"/>
<stop offset="0.6454" stop-color="#26174D"/>
<stop offset="0.7692" stop-color="#24154A"/>
<stop offset="0.8606" stop-color="#201045"/>
<stop offset="0.9355" stop-color="#1A083D"/>
<stop offset="1" stop-color="#120033"/>
</radialGradient>
<radialGradient id="paint1_radial" cx="0" cy="0" r="1" gradientUnits="userSpaceOnUse" gradientTransform="translate(642.799 124.164) scale(775.133)">
<stop offset="0.3462" stop-color="#865AFF"/>
<stop offset="0.6454" stop-color="#26174D"/>
<stop offset="0.7692" stop-color="#24154A"/>
<stop offset="0.8606" stop-color="#201045"/>
<stop offset="0.9355" stop-color="#1A083D"/>
<stop offset="1" stop-color="#120033"/>
</radialGradient>
<radialGradient id="paint2_radial" cx="0" cy="0" r="1" gradientUnits="userSpaceOnUse" gradientTransform="translate(467.073 577.858) rotate(-8.64466) scale(705.733 462.297)">
<stop offset="0.4279" stop-color="#FFFCDD"/>
<stop offset="0.481" stop-color="#FFF2D1"/>
<stop offset="0.5701" stop-color="#FFDDB6"/>
<stop offset="0.6844" stop-color="#FBBB8E"/>
<stop offset="0.8194" stop-color="#F68F5F"/>
<stop offset="0.9702" stop-color="#F0542A"/>
<stop offset="1" stop-color="#EF4423"/>
</radialGradient>
<radialGradient id="paint3_radial" cx="0" cy="0" r="1" gradientUnits="userSpaceOnUse" gradientTransform="translate(722.949 703.135) scale(836.314)">
<stop stop-color="#0094FF"/>
<stop offset="0.1671" stop-color="#CDC6BE"/>
<stop offset="0.5396" stop-color="#766B84"/>
<stop offset="1" stop-color="#26184D"/>
</radialGradient>
<radialGradient id="paint4_radial" cx="0" cy="0" r="1" gradientUnits="userSpaceOnUse" gradientTransform="translate(953.938 315.034) scale(597.393 373.849)">
<stop stop-color="#FFFCDD"/>
<stop offset="0.0598" stop-color="#CDC6BE"/>
<stop offset="0.1523" stop-color="#9A909D"/>
<stop offset="0.25" stop-color="#756983"/>
<stop offset="0.3512" stop-color="#5A4F70"/>
<stop offset="0.4567" stop-color="#463B62"/>
<stop offset="0.568" stop-color="#382B59"/>
<stop offset="0.6877" stop-color="#2E2152"/>
<stop offset="0.8218" stop-color="#281A4E"/>
<stop offset="1" stop-color="#26184D"/>
</radialGradient>
<radialGradient id="paint5_radial" cx="0" cy="0" r="1" gradientUnits="userSpaceOnUse" gradientTransform="translate(346.355 304.155) scale(464.507)">
<stop stop-color="#FFFCDD"/>
<stop offset="0.0598" stop-color="#CDC6BE"/>
<stop offset="0.1523" stop-color="#9A909D"/>
<stop offset="0.25" stop-color="#756983"/>
<stop offset="0.3512" stop-color="#5A4F70"/>
<stop offset="0.4567" stop-color="#463B62"/>
<stop offset="0.568" stop-color="#382B59"/>
<stop offset="0.6877" stop-color="#2E2152"/>
<stop offset="0.8218" stop-color="#281A4E"/>
<stop offset="1" stop-color="#26184D"/>
</radialGradient>
<clipPath id="clip0">
<rect width="1400" height="980" fill="white"/>
</clipPath>
</defs>
</svg>
